<svg width="523" height="253" viewBox="0 0 523 253" fill="none" xmlns="http://www.w3.org/2000/svg">
<path d="M0 183.5V5.4915C0 2.7334 2.23342 0.496202 4.99152 0.491511L288.991 0.00851786C291.756 0.00381592 294 2.24377 294 5.00851V59.5C294 62.2614 296.239 64.5 299 64.5H518C520.761 64.5 523 66.7386 523 69.5V247.5C523 250.261 520.761 252.5 518 252.5H234.539C231.763 252.5 229.518 250.238 229.539 247.461L229.961 193.539C229.982 190.762 227.737 188.5 224.961 188.5H5C2.23858 188.5 0 186.261 0 183.5Z" fill="url(#paint0_linear_40_141)"/>
<defs>
<linearGradient id="paint0_linear_40_141" x1="261.5" y1="0" x2="261.5" y2="252.5" gradientUnits="userSpaceOnUse">
<stop stop-color="#6B16D8"/>
<stop offset="1" stop-color="#16052C"/>
</linearGradient>
</defs>
</svg>
