<svg width="29" height="27" viewBox="0 0 29 27" fill="none" xmlns="http://www.w3.org/2000/svg">
<path d="M16.3667 26.6667C15.8556 26.6667 15.4833 26.5 15.25 26.1667C15.0167 25.8333 14.9889 25.4222 15.1667 24.9333L20.0667 11.9333C20.2 11.5778 20.4444 11.2778 20.8 11.0333C21.1556 10.7889 21.5222 10.6667 21.9 10.6667C22.2778 10.6667 22.65 10.7889 23.0167 11.0333C23.3833 11.2778 23.6333 11.5778 23.7667 11.9333L28.7667 24.8C28.9667 25.3111 28.9444 25.75 28.7 26.1167C28.4556 26.4833 28.0444 26.6667 27.4667 26.6667C27.2222 26.6667 26.9889 26.5889 26.7667 26.4333C26.5444 26.2778 26.3889 26.0778 26.3 25.8333L25.2 22.4667H18.8L17.5333 25.8667C17.4444 26.0889 17.2889 26.2778 17.0667 26.4333C16.8444 26.5889 16.6111 26.6667 16.3667 26.6667ZM19.5333 20.1333H24.2667L21.9333 13.6667H21.8667L19.5333 20.1333ZM8.3 8.73333C8.63333 9.31111 9 9.87222 9.4 10.4167C9.8 10.9611 10.2333 11.5222 10.7 12.1C11.7 11.0556 12.5333 9.97222 13.2 8.85C13.8667 7.72778 14.4333 6.55556 14.9 5.33333H1.33333C0.955555 5.33333 0.638889 5.20556 0.383333 4.95C0.127778 4.69444 0 4.37778 0 4C0 3.62222 0.127778 3.30556 0.383333 3.05C0.638889 2.79444 0.955555 2.66667 1.33333 2.66667H9.33333V1.33333C9.33333 0.955555 9.46111 0.638889 9.71667 0.383333C9.97222 0.127778 10.2889 0 10.6667 0C11.0444 0 11.3611 0.127778 11.6167 0.383333C11.8722 0.638889 12 0.955555 12 1.33333V2.66667H20C20.3778 2.66667 20.6944 2.79444 20.95 3.05C21.2056 3.30556 21.3333 3.62222 21.3333 4C21.3333 4.37778 21.2056 4.69444 20.95 4.95C20.6944 5.20556 20.3778 5.33333 20 5.33333H17.5667C17.0778 6.86667 16.4278 8.37222 15.6167 9.85C14.8056 11.3278 13.8111 12.7333 12.6333 14.0667L15.9 17.3667L14.9 20.0667L10.6667 16L4.9 21.7667C4.65556 22.0111 4.35556 22.1333 4 22.1333C3.64444 22.1333 3.34444 22 3.1 21.7333C2.83333 21.4889 2.7 21.1889 2.7 20.8333C2.7 20.4778 2.83333 20.1667 3.1 19.9L8.96667 14.0333C8.38889 13.3444 7.84444 12.65 7.33333 11.95C6.82222 11.25 6.35556 10.5333 5.93333 9.8C5.66667 9.31111 5.64444 8.88889 5.86667 8.53333C6.08889 8.17778 6.48889 8 7.06667 8C7.31111 8 7.55 8.07222 7.78333 8.21667C8.01667 8.36111 8.18889 8.53333 8.3 8.73333Z" fill="#501D84"/>
</svg>
