<svg width="30" height="22" viewBox="0 0 30 22" fill="none" xmlns="http://www.w3.org/2000/svg">
<path d="M17.3333 7.53333V5.93333C18.0667 5.62222 18.8167 5.38889 19.5833 5.23333C20.35 5.07778 21.1556 5 22 5C22.5778 5 23.1444 5.04444 23.7 5.13333C24.2556 5.22222 24.8 5.33333 25.3333 5.46667V6.93333C24.8 6.73333 24.2611 6.58333 23.7167 6.48333C23.1722 6.38333 22.6 6.33333 22 6.33333C21.1556 6.33333 20.3444 6.43889 19.5667 6.65C18.7889 6.86111 18.0444 7.15556 17.3333 7.53333ZM17.3333 14.8667V13.2333C18.0667 12.9222 18.8167 12.6944 19.5833 12.55C20.35 12.4056 21.1556 12.3333 22 12.3333C22.5778 12.3333 23.1444 12.3778 23.7 12.4667C24.2556 12.5556 24.8 12.6667 25.3333 12.8V14.2667C24.8 14.0667 24.2611 13.9167 23.7167 13.8167C23.1722 13.7167 22.6 13.6667 22 13.6667C21.1556 13.6667 20.3444 13.7667 19.5667 13.9667C18.7889 14.1667 18.0444 14.4667 17.3333 14.8667ZM17.3333 11.2V9.6C18.0667 9.28889 18.8167 9.05556 19.5833 8.9C20.35 8.74444 21.1556 8.66667 22 8.66667C22.5778 8.66667 23.1444 8.71111 23.7 8.8C24.2556 8.88889 24.8 9 25.3333 9.13333V10.6C24.8 10.4 24.2611 10.25 23.7167 10.15C23.1722 10.05 22.6 10 22 10C21.1556 10 20.3444 10.1056 19.5667 10.3167C18.7889 10.5278 18.0444 10.8222 17.3333 11.2ZM6.93333 16.6667C8.13333 16.6667 9.29445 16.8056 10.4167 17.0833C11.5389 17.3611 12.6444 17.7778 13.7333 18.3333V4.1C12.7333 3.43333 11.65 2.91667 10.4833 2.55C9.31667 2.18333 8.13333 2 6.93333 2C6.08889 2 5.26111 2.10556 4.45 2.31667C3.63889 2.52778 2.82222 2.78889 2 3.1V17.5667C2.68889 17.2556 3.47222 17.0278 4.35 16.8833C5.22778 16.7389 6.08889 16.6667 6.93333 16.6667ZM15.7333 18.3333C16.8444 17.7778 17.9333 17.3611 19 17.0833C20.0667 16.8056 21.2 16.6667 22.4 16.6667C23.2444 16.6667 24.1167 16.7333 25.0167 16.8667C25.9167 17 26.6889 17.1778 27.3333 17.4V3.1C26.5778 2.72222 25.7778 2.44444 24.9333 2.26667C24.0889 2.08889 23.2444 2 22.4 2C21.2 2 20.0389 2.18333 18.9167 2.55C17.7944 2.91667 16.7333 3.43333 15.7333 4.1V18.3333ZM14.7333 21.3333C13.6 20.4889 12.3667 19.8389 11.0333 19.3833C9.7 18.9278 8.33333 18.7 6.93333 18.7C6.11111 18.7 5.31111 18.8 4.53333 19C3.75556 19.2 2.97778 19.4444 2.2 19.7333C1.68889 19.9778 1.19444 19.9444 0.716667 19.6333C0.238889 19.3222 0 18.8778 0 18.3V2.86667C0 2.53333 0.0777777 2.22778 0.233333 1.95C0.388889 1.67222 0.622222 1.45556 0.933333 1.3C1.86667 0.855555 2.83889 0.527778 3.85 0.316667C4.86111 0.105556 5.88889 0 6.93333 0C8.33333 0 9.69444 0.188889 11.0167 0.566667C12.3389 0.944445 13.5778 1.52222 14.7333 2.3C15.8667 1.52222 17.0833 0.944445 18.3833 0.566667C19.6833 0.188889 21.0222 0 22.4 0C23.4444 0 24.4667 0.105556 25.4667 0.316667C26.4667 0.527778 27.4333 0.855555 28.3667 1.3C28.6778 1.45556 28.9167 1.67222 29.0833 1.95C29.25 2.22778 29.3333 2.53333 29.3333 2.86667V18.3C29.3333 18.9222 29.0833 19.3944 28.5833 19.7167C28.0833 20.0389 27.5889 20.0444 27.1 19.7333C26.3444 19.4222 25.5778 19.1722 24.8 18.9833C24.0222 18.7944 23.2222 18.7 22.4 18.7C21 18.7 19.6556 18.9333 18.3667 19.4C17.0778 19.8667 15.8667 20.5111 14.7333 21.3333Z" fill="url(#paint0_linear_38_92)"/>
<defs>
<linearGradient id="paint0_linear_38_92" x1="14.6667" y1="0" x2="14.6667" y2="21.3333" gradientUnits="userSpaceOnUse">
<stop stop-color="#501D84"/>
</linearGradient>
</defs>
</svg>
