<svg width="152" height="31" viewBox="0 0 152 31" fill="none" xmlns="http://www.w3.org/2000/svg">
<path d="M0.72998 30V0.893982H18.076L17.362 5.80798H7.61798V13.536H16.102V18.45H7.61798V30H0.72998Z" fill="url(#paint0_linear_48_2)"/>
<path d="M39.0402 18.408C39.0402 19.332 38.9982 20.13 38.9142 20.802H25.0962C25.3202 22.678 25.8522 23.994 26.6922 24.75C27.5322 25.506 28.6942 25.884 30.1782 25.884C31.0742 25.884 31.9422 25.73 32.7822 25.422C33.6222 25.086 34.5322 24.582 35.5122 23.91L38.2422 27.606C35.6382 29.678 32.7402 30.714 29.5482 30.714C25.9362 30.714 23.1642 29.65 21.2322 27.522C19.3002 25.394 18.3342 22.538 18.3342 18.954C18.3342 16.686 18.7402 14.656 19.5522 12.864C20.3642 11.044 21.5542 9.61598 23.1222 8.57998C24.6902 7.51598 26.5662 6.98398 28.7502 6.98398C31.9702 6.98398 34.4902 7.99198 36.3102 10.008C38.1302 12.024 39.0402 14.824 39.0402 18.408ZM32.5302 16.518C32.4742 13.102 31.2702 11.394 28.9182 11.394C27.7702 11.394 26.8742 11.814 26.2302 12.654C25.6142 13.494 25.2362 14.88 25.0962 16.812H32.5302V16.518Z" fill="url(#paint1_linear_48_2)"/>
<path d="M60.0819 23.532C60.0819 24.372 60.1939 24.988 60.4179 25.38C60.6699 25.772 61.0619 26.066 61.5939 26.262L60.2079 30.588C58.8359 30.476 57.7159 30.182 56.8479 29.706C55.9799 29.202 55.3079 28.418 54.8319 27.354C53.3759 29.594 51.1359 30.714 48.1119 30.714C45.8999 30.714 44.1359 30.07 42.8199 28.782C41.5039 27.494 40.8459 25.814 40.8459 23.742C40.8459 21.306 41.7419 19.444 43.5339 18.156C45.3259 16.868 47.9159 16.224 51.3039 16.224H53.5719V15.258C53.5719 13.942 53.2919 13.046 52.7319 12.57C52.1719 12.066 51.1919 11.814 49.7919 11.814C49.0639 11.814 48.1819 11.926 47.1459 12.15C46.1099 12.346 45.0459 12.626 43.9539 12.99L42.4419 8.62198C43.8419 8.08998 45.2699 7.68398 46.7259 7.40398C48.2099 7.12398 49.5819 6.98398 50.8419 6.98398C54.0339 6.98398 56.3719 7.64198 57.8559 8.95798C59.3399 10.274 60.0819 12.248 60.0819 14.88V23.532ZM50.0439 25.968C51.5559 25.968 52.7319 25.254 53.5719 23.826V19.878H51.9339C50.4219 19.878 49.2879 20.144 48.5319 20.676C47.8039 21.208 47.4399 22.034 47.4399 23.154C47.4399 24.05 47.6639 24.75 48.1119 25.254C48.5879 25.73 49.2319 25.968 50.0439 25.968Z" fill="url(#paint2_linear_48_2)"/>
<path d="M77.4637 7.06798C78.2757 7.06798 79.0177 7.16598 79.6897 7.36198L78.6397 13.788C77.7997 13.592 77.1276 13.494 76.6236 13.494C75.3076 13.494 74.2997 13.956 73.5997 14.88C72.9277 15.776 72.3957 17.134 72.0037 18.954V30H65.3677V7.69798H71.1637L71.7097 12.024C72.2137 10.484 72.9697 9.27998 73.9777 8.41198C75.0137 7.51598 76.1757 7.06798 77.4637 7.06798Z" fill="url(#paint3_linear_48_2)"/>
<path d="M90.4571 0.893982C95.0211 0.893982 98.6751 1.92998 101.419 4.00198C104.191 6.04598 105.577 9.81198 105.577 15.3C105.577 20.704 104.233 24.512 101.545 26.724C98.8571 28.908 95.3711 30 91.0871 30H82.3511V0.893982H90.4571ZM89.2391 5.89198V25.002H91.5071C93.7751 25.002 95.4971 24.302 96.6731 22.902C97.8491 21.474 98.4371 18.94 98.4371 15.3C98.4371 12.808 98.1431 10.876 97.5551 9.50398C96.9671 8.13198 96.1691 7.19398 95.1611 6.68998C94.1531 6.15798 92.9071 5.89198 91.4231 5.89198H89.2391Z" fill="url(#paint4_linear_48_2)"/>
<path d="M129.029 18.408C129.029 19.332 128.986 20.13 128.902 20.802H115.084C115.308 22.678 115.84 23.994 116.68 24.75C117.52 25.506 118.682 25.884 120.166 25.884C121.062 25.884 121.931 25.73 122.771 25.422C123.611 25.086 124.52 24.582 125.5 23.91L128.23 27.606C125.626 29.678 122.728 30.714 119.536 30.714C115.924 30.714 113.152 29.65 111.22 27.522C109.288 25.394 108.322 22.538 108.322 18.954C108.322 16.686 108.728 14.656 109.54 12.864C110.352 11.044 111.542 9.61598 113.11 8.57998C114.678 7.51598 116.554 6.98398 118.738 6.98398C121.958 6.98398 124.478 7.99198 126.298 10.008C128.118 12.024 129.029 14.824 129.029 18.408ZM122.518 16.518C122.462 13.102 121.258 11.394 118.906 11.394C117.758 11.394 116.862 11.814 116.218 12.654C115.602 13.494 115.224 14.88 115.084 16.812H122.518V16.518Z" fill="url(#paint5_linear_48_2)"/>
<path d="M151.622 7.69798L144.608 30H136.754L129.572 7.69798H136.796L140.744 24.96L144.86 7.69798H151.622Z" fill="url(#paint6_linear_48_2)"/>
<defs>
<linearGradient id="paint0_linear_48_2" x1="76.1761" y1="0.893982" x2="76.1761" y2="30.714" gradientUnits="userSpaceOnUse">
<stop stop-color="#6B16D8"/>
<stop offset="1" stop-color="#16052C"/>
</linearGradient>
<linearGradient id="paint1_linear_48_2" x1="76.1761" y1="0.893982" x2="76.1761" y2="30.714" gradientUnits="userSpaceOnUse">
<stop stop-color="#6B16D8"/>
<stop offset="1" stop-color="#16052C"/>
</linearGradient>
<linearGradient id="paint2_linear_48_2" x1="76.1761" y1="0.893982" x2="76.1761" y2="30.714" gradientUnits="userSpaceOnUse">
<stop stop-color="#6B16D8"/>
<stop offset="1" stop-color="#16052C"/>
</linearGradient>
<linearGradient id="paint3_linear_48_2" x1="76.1761" y1="0.893982" x2="76.1761" y2="30.714" gradientUnits="userSpaceOnUse">
<stop stop-color="#6B16D8"/>
<stop offset="1" stop-color="#16052C"/>
</linearGradient>
<linearGradient id="paint4_linear_48_2" x1="76.1761" y1="0.893982" x2="76.1761" y2="30.714" gradientUnits="userSpaceOnUse">
<stop stop-color="#6B16D8"/>
<stop offset="1" stop-color="#16052C"/>
</linearGradient>
<linearGradient id="paint5_linear_48_2" x1="76.1761" y1="0.893982" x2="76.1761" y2="30.714" gradientUnits="userSpaceOnUse">
<stop stop-color="#6B16D8"/>
<stop offset="1" stop-color="#16052C"/>
</linearGradient>
<linearGradient id="paint6_linear_48_2" x1="76.1761" y1="0.893982" x2="76.1761" y2="30.714" gradientUnits="userSpaceOnUse">
<stop stop-color="#6B16D8"/>
<stop offset="1" stop-color="#16052C"/>
</linearGradient>
</defs>
</svg>
